<?xml version="1.0" encoding="UTF-8"?>
<svg id="Layer_1" xmlns="http://www.w3.org/2000/svg" version="1.1" viewBox="0 0 2000 662">
  <!-- Generator: Adobe Illustrator 29.3.1, SVG Export Plug-In . SVG Version: 2.1.0 Build 151)  -->
  <defs>
    <style>
      .st0 {
        fill: #00b4d8;
      }

      .st1 {
        fill: #1f2c39;
      }
    </style>
  </defs>
  <g>
    <g>
      <path class="st0" d="M534.74,142.42c43.89-40.94,79.13-46.61,79.13-46.61-82.63-36.69-161.27-11.66-181.13-4.17,29.95,9.93,57.99,22.75,82.56,37.84,6.78,4.16,13.27,8.47,19.44,12.93Z"/>
      <path class="st0" d="M767.05,323.7c-61.63-75.18-156-106.57-180.71-113.76h0C512.67,89.88,225.52,4.79,10.23,169.66c0,0,56.14,86.51,173.55,105.96,0,0,76.39-68,181.53-43.86,0,0-102.24-78.56-236.73-14.41,0,0-24.14-6.89-52.72-35.84,0,0,128.74-59.8,270.27-21.94,0,0,.05.01.16.04,6.93,1.86,13.89,3.94,20.85,6.29,23.47,8.88,47.2,22.97,65.4,63.48.23-24.37-7.49-51.01-13.32-66.12,0,0,28.08,27.3,34.78,63.89,0,0,14.59-32.91-6.49-66.44,0,0,30.96,20.86,34.71,73.44,0,0,9.76-11.34,6.3-32.3,0,0,9.14,9.37,8.6,26.01-.17,4.01-1.11,11.76-5.56,18.47,3.39-1.57,5.45-3.62,6.65-5.82,100.42,81.72,90.95,198.83,39.05,299.06,0,0,120.97-65.16,90.19-237.42,57.62,2.32,139.61,21.56,139.61,21.56Z"/>
      <path class="st0" d="M435.09,346.64c-155.56-13.23-198.38-64.06-198.38-64.06,0,0,.57,22.47,39.37,45.94,16.45,26.28,51.19,69.31,109.81,86.56,0,0-6.64-21.34-11.36-51.81,6.61,1.37,13.52,2.69,20.78,3.94,188.28,32.51,56.55,132.25,55.39,133.13-76.78,52.21-162.58,17.42-162.58,17.42,0,0,25.97-99.62-85.83-162.72,33.24,42.93,36.13,100.18,8.54,140.71-30.63,44.98-84.65,48.54-91.28,48.88,4.06,5.71,24.26,33.4,62.35,39.81,21.36,3.6,47.85-.2,78.9-20.25.89-.57,10.39,4.43,11.49,4.85,10.27,3.9,20.83,7.03,31.53,9.49,32.02,7.35,65.65,8.49,97.92,2.14,32.65-6.42,63.5-22.02,87.83-44.75,10.88-10.17,19.89-22.24,27.45-35.05,8.35-14.16,15.01-29.48,18.85-45.49,3.68-15.35,4.76-31.69.67-47.07-4.27-16.08-14.31-29.64-27.85-39.18-19.36-13.64-43.54-19.23-66.72-21.82-2.28-.25-4.57-.48-6.86-.67Z"/>
    </g>
    <g>
      <path class="st1" d="M884.03,334.05c6.24-2.52,14.16-3.78,23.77-3.78,14.88,0,28.08,2.94,39.61,8.82,11.52,5.88,22.08,15.07,31.69,27.54l26.64-32.41c-11.29-14.64-24.91-25.62-40.87-32.94-15.97-7.32-34.51-10.98-55.63-10.98-19.69,0-36.67,3.3-50.95,9.9-14.28,6.6-25.27,15.54-32.95,26.82-7.68,11.29-11.52,24.01-11.52,38.17,0,12.48,2.82,22.99,8.46,31.5,5.64,8.52,13.32,15.43,23.04,20.7,9.72,5.28,20.94,9.36,33.67,12.24l45.73,10.44c10.8,2.64,18.3,6.18,22.51,10.62,4.2,4.45,6.3,9.79,6.3,16.02,0,5.76-1.74,10.8-5.22,15.12-3.48,4.32-8.41,7.62-14.76,9.9-6.36,2.28-14.22,3.42-23.58,3.42-11.04,0-21.66-1.74-31.86-5.22-10.21-3.48-19.33-8.22-27.37-14.22-8.04-6-14.82-12.96-20.34-20.88l-27,34.21c7.2,8.88,16.08,16.87,26.64,23.95,10.56,7.08,22.62,12.55,36.19,16.38,13.56,3.84,28.14,5.76,43.75,5.76,18.48,0,34.93-2.94,49.33-8.82,14.4-5.88,25.62-14.4,33.67-25.56,8.04-11.16,12.06-24.54,12.06-40.15,0-16.8-5.1-30.43-15.3-40.87-10.2-10.44-26.71-18.3-49.51-23.58l-41.77-9.72c-11.04-2.4-19.21-5.76-24.48-10.08-5.28-4.32-7.92-10.08-7.92-17.28,0-5.28,1.44-10.14,4.32-14.58,2.88-4.44,7.44-7.92,13.68-10.44Z"/>
      <polygon class="st1" points="1200.52 391.48 1100.78 391.48 1100.78 293.9 1050.73 293.9 1050.73 531.54 1100.78 531.54 1100.78 431.8 1200.52 431.8 1200.52 531.54 1250.92 531.54 1250.92 293.9 1200.52 293.9 1200.52 391.48"/>
      <path class="st1" d="M1369.03,293.9l-83.9,237.64h50.77l19.08-58.33h87.14l19.08,58.33h51.85l-83.9-237.64h-60.13ZM1365.78,436.85l32.77-104.06,32.77,104.06h-65.53Z"/>
      <path class="st1" d="M1695.78,428.92c12.6-5.52,22.26-13.62,28.98-24.3,6.72-10.68,10.08-23.7,10.08-39.07,0-22.08-7.51-39.54-22.51-52.39-15-12.84-35.59-19.26-61.75-19.26h-103.34v237.64h49.33v-91.09h42.33l53.09,91.09h56.17l-62.16-98.97c3.41-1.07,6.66-2.28,9.77-3.65ZM1596.58,333.15h47.89c12,0,21.54,2.64,28.62,7.92,7.08,5.28,10.62,14.28,10.62,27s-3.42,21.42-10.26,26.82c-6.84,5.4-16.51,8.1-28.98,8.1h-47.89v-69.85Z"/>
      <polygon class="st1" points="1932.52 531.54 1989.77 531.54 1904.64 390.32 1986.53 293.9 1929.28 293.9 1836.74 405.8 1836.74 293.9 1786.69 293.9 1786.69 531.54 1836.74 531.54 1836.74 461.11 1868.67 423.09 1932.52 531.54"/>
    </g>
  </g>
  <g>
    <path class="st1" d="M899.1,128.54v18.08h-50.4v27.2h43.04v16.64h-43.04v42.72h-22.24v-104.64h72.64Z"/>
    <path class="st1" d="M1042.94,192.06h-15.04v41.12h-22.24v-104.64h40.16c6.72,0,12.5.75,17.36,2.24,4.85,1.5,8.82,3.6,11.92,6.32,3.09,2.72,5.38,5.95,6.88,9.68,1.49,3.73,2.24,7.84,2.24,12.32,0,7.04-1.79,13.15-5.36,18.32-3.58,5.17-8.88,8.72-15.92,10.64l28.48,45.12h-24.48l-24-41.12ZM1027.9,176.22h17.76c3.3,0,6.03-.4,8.16-1.2,2.13-.8,3.84-1.92,5.12-3.36s2.16-3.09,2.64-4.96c.48-1.87.72-3.92.72-6.16,0-4.8-1.18-8.5-3.52-11.12-2.35-2.61-6.78-3.92-13.28-3.92h-17.6v30.72Z"/>
    <path class="st1" d="M1266.46,128.54v18.08h-49.92v25.28h37.92v15.84h-37.92v27.68h51.68v17.76h-73.92v-104.64h72.16Z"/>
    <path class="st1" d="M1398.78,128.54v104.64h-22.24v-104.64h22.24Z"/>
    <path class="st1" d="M1554.46,126.94c5.01,0,9.73.59,14.16,1.76,4.42,1.17,8.4,2.8,11.92,4.88,3.52,2.08,6.53,4.59,9.04,7.52,2.5,2.94,4.4,6.11,5.68,9.52l-15.68,6.24c-4.8-8.43-12.43-12.64-22.88-12.64-8.64,0-15.02,2.19-19.12,6.56-4.11,4.38-6.16,10.77-6.16,19.2v24c0,7.9,2.08,13.76,6.24,17.6,4.16,3.84,10.08,5.76,17.76,5.76,4.69,0,8.67-.72,11.92-2.16,3.25-1.44,6.16-3.87,8.72-7.28v-15.2h-15.68v-13.76h35.04v54.24h-17.92v-8c-7.47,6.19-16.64,9.28-27.52,9.28-6.19,0-11.79-.85-16.8-2.56-5.01-1.71-9.28-4.27-12.8-7.68-3.52-3.41-6.24-7.6-8.16-12.56s-2.88-10.75-2.88-17.36v-24.32c0-6.5.93-12.4,2.8-17.68,1.87-5.28,4.67-9.81,8.4-13.6,3.73-3.79,8.42-6.69,14.08-8.72,5.65-2.02,12.26-3.04,19.84-3.04Z"/>
    <path class="st1" d="M1727.58,128.54v42.56h39.36v-42.56h22.08v104.64h-22.08v-43.52h-39.36v43.52h-22.24v-104.64h22.24Z"/>
    <path class="st1" d="M1973.5,128.54v18.24h-29.44v86.4h-22.24v-86.4h-29.44v-18.24h81.12Z"/>
  </g>
</svg>