<?xml version="1.0" encoding="UTF-8"?>
<svg id="Layer_1" xmlns="http://www.w3.org/2000/svg" version="1.1" viewBox="0 0 2000 662">
  <!-- Generator: Adobe Illustrator 29.3.1, SVG Export Plug-In . SVG Version: 2.1.0 Build 151)  -->
  <defs>
    <style>
      .st0 {
        fill: #00b4d8;
      }

      .st1 {
        fill: #fff;
      }
    </style>
  </defs>
  <g>
    <g>
      <path class="st0" d="M534.7,142.4c43.9-40.9,79.1-46.6,79.1-46.6-82.6-36.7-161.3-11.7-181.1-4.2,30,9.9,58,22.8,82.6,37.8,6.8,4.2,13.3,8.5,19.4,12.9h0Z"/>
      <path class="st0" d="M767,323.7c-61.6-75.2-156-106.6-180.7-113.8h0C512.7,89.9,225.5,4.8,10.2,169.7c0,0,56.1,86.5,173.5,106,0,0,76.4-68,181.5-43.9,0,0-102.2-78.6-236.7-14.4,0,0-24.1-6.9-52.7-35.8,0,0,128.7-59.8,270.3-21.9,0,0,0,0,.2,0,6.9,1.9,13.9,3.9,20.9,6.3,23.5,8.9,47.2,23,65.4,63.5.2-24.4-7.5-51-13.3-66.1,0,0,28.1,27.3,34.8,63.9,0,0,14.6-32.9-6.5-66.4,0,0,31,20.9,34.7,73.4,0,0,9.8-11.3,6.3-32.3,0,0,9.1,9.4,8.6,26-.2,4-1.1,11.8-5.6,18.5,3.4-1.6,5.5-3.6,6.6-5.8,100.4,81.7,90.9,198.8,39.1,299.1,0,0,121-65.2,90.2-237.4,57.6,2.3,139.6,21.6,139.6,21.6h0Z"/>
      <path class="st0" d="M435.1,346.6c-155.6-13.2-198.4-64.1-198.4-64.1,0,0,.6,22.5,39.4,45.9,16.5,26.3,51.2,69.3,109.8,86.6,0,0-6.6-21.3-11.4-51.8,6.6,1.4,13.5,2.7,20.8,3.9,188.3,32.5,56.5,132.2,55.4,133.1-76.8,52.2-162.6,17.4-162.6,17.4,0,0,26-99.6-85.8-162.7,33.2,42.9,36.1,100.2,8.5,140.7-30.6,45-84.7,48.5-91.3,48.9,4.1,5.7,24.3,33.4,62.4,39.8,21.4,3.6,47.9-.2,78.9-20.2.9-.6,10.4,4.4,11.5,4.8,10.3,3.9,20.8,7,31.5,9.5,32,7.3,65.6,8.5,97.9,2.1,32.6-6.4,63.5-22,87.8-44.8,10.9-10.2,19.9-22.2,27.5-35,8.3-14.2,15-29.5,18.8-45.5,3.7-15.4,4.8-31.7.7-47.1-4.3-16.1-14.3-29.6-27.9-39.2-19.4-13.6-43.5-19.2-66.7-21.8-2.3-.2-4.6-.5-6.9-.7h0Z"/>
    </g>
    <g>
      <path class="st1" d="M884,334c6.2-2.5,14.2-3.8,23.8-3.8,14.9,0,28.1,2.9,39.6,8.8,11.5,5.9,22.1,15.1,31.7,27.5l26.6-32.4c-11.3-14.6-24.9-25.6-40.9-32.9-16-7.3-34.5-11-55.6-11s-36.7,3.3-51,9.9-25.3,15.5-33,26.8c-7.7,11.3-11.5,24-11.5,38.2s2.8,23,8.5,31.5c5.6,8.5,13.3,15.4,23,20.7,9.7,5.3,20.9,9.4,33.7,12.2l45.7,10.4c10.8,2.6,18.3,6.2,22.5,10.6,4.2,4.5,6.3,9.8,6.3,16s-1.7,10.8-5.2,15.1-8.4,7.6-14.8,9.9c-6.4,2.3-14.2,3.4-23.6,3.4s-21.7-1.7-31.9-5.2c-10.2-3.5-19.3-8.2-27.4-14.2s-14.8-13-20.3-20.9l-27,34.2c7.2,8.9,16.1,16.9,26.6,24s22.6,12.5,36.2,16.4c13.6,3.8,28.1,5.8,43.8,5.8s34.9-2.9,49.3-8.8,25.6-14.4,33.7-25.6c8-11.2,12.1-24.5,12.1-40.1s-5.1-30.4-15.3-40.9-26.7-18.3-49.5-23.6l-41.8-9.7c-11-2.4-19.2-5.8-24.5-10.1-5.3-4.3-7.9-10.1-7.9-17.3s1.4-10.1,4.3-14.6c2.9-4.4,7.4-7.9,13.7-10.4h0Z"/>
      <polygon class="st1" points="1200.5 391.5 1100.8 391.5 1100.8 293.9 1050.7 293.9 1050.7 531.5 1100.8 531.5 1100.8 431.8 1200.5 431.8 1200.5 531.5 1250.9 531.5 1250.9 293.9 1200.5 293.9 1200.5 391.5"/>
      <path class="st1" d="M1369,293.9l-83.9,237.6h50.8l19.1-58.3h87.1l19.1,58.3h51.8l-83.9-237.6h-60.1,0ZM1365.8,436.9l32.8-104.1,32.8,104.1h-65.5Z"/>
      <path class="st1" d="M1695.8,428.9c12.6-5.5,22.3-13.6,29-24.3s10.1-23.7,10.1-39.1c0-22.1-7.5-39.5-22.5-52.4-15-12.8-35.6-19.3-61.8-19.3h-103.3v237.6h49.3v-91.1h42.3l53.1,91.1h56.2l-62.2-99c3.4-1.1,6.7-2.3,9.8-3.6h0ZM1596.6,333.1h47.9c12,0,21.5,2.6,28.6,7.9s10.6,14.3,10.6,27-3.4,21.4-10.3,26.8-16.5,8.1-29,8.1h-47.9v-69.9h0Z"/>
      <polygon class="st1" points="1932.5 531.5 1989.8 531.5 1904.6 390.3 1986.5 293.9 1929.3 293.9 1836.7 405.8 1836.7 293.9 1786.7 293.9 1786.7 531.5 1836.7 531.5 1836.7 461.1 1868.7 423.1 1932.5 531.5"/>
    </g>
  </g>
  <g>
    <path class="st1" d="M899.1,128.5v18.1h-50.4v27.2h43v16.6h-43v42.7h-22.2v-104.6h72.6Z"/>
    <path class="st1" d="M1042.9,192.1h-15v41.1h-22.2v-104.6h40.2c6.7,0,12.5.8,17.4,2.2,4.8,1.5,8.8,3.6,11.9,6.3,3.1,2.7,5.4,5.9,6.9,9.7,1.5,3.7,2.2,7.8,2.2,12.3,0,7-1.8,13.1-5.4,18.3-3.6,5.2-8.9,8.7-15.9,10.6l28.5,45.1h-24.5l-24-41.1h0ZM1027.9,176.2h17.8c3.3,0,6-.4,8.2-1.2s3.8-1.9,5.1-3.4,2.2-3.1,2.6-5c.5-1.9.7-3.9.7-6.2,0-4.8-1.2-8.5-3.5-11.1-2.3-2.6-6.8-3.9-13.3-3.9h-17.6v30.7Z"/>
    <path class="st1" d="M1266.5,128.5v18.1h-49.9v25.3h37.9v15.8h-37.9v27.7h51.7v17.8h-73.9v-104.6h72.2Z"/>
    <path class="st1" d="M1398.8,128.5v104.6h-22.2v-104.6h22.2Z"/>
    <path class="st1" d="M1554.5,126.9c5,0,9.7.6,14.2,1.8,4.4,1.2,8.4,2.8,11.9,4.9s6.5,4.6,9,7.5c2.5,2.9,4.4,6.1,5.7,9.5l-15.7,6.2c-4.8-8.4-12.4-12.6-22.9-12.6s-15,2.2-19.1,6.6c-4.1,4.4-6.2,10.8-6.2,19.2v24c0,7.9,2.1,13.8,6.2,17.6,4.2,3.8,10.1,5.8,17.8,5.8s8.7-.7,11.9-2.2,6.2-3.9,8.7-7.3v-15.2h-15.7v-13.8h35v54.2h-17.9v-8c-7.5,6.2-16.6,9.3-27.5,9.3s-11.8-.9-16.8-2.6c-5-1.7-9.3-4.3-12.8-7.7-3.5-3.4-6.2-7.6-8.2-12.6s-2.9-10.8-2.9-17.4v-24.3c0-6.5.9-12.4,2.8-17.7s4.7-9.8,8.4-13.6c3.7-3.8,8.4-6.7,14.1-8.7,5.7-2,12.3-3,19.8-3h0Z"/>
    <path class="st1" d="M1727.6,128.5v42.6h39.4v-42.6h22.1v104.6h-22.1v-43.5h-39.4v43.5h-22.2v-104.6h22.2Z"/>
    <path class="st1" d="M1973.5,128.5v18.2h-29.4v86.4h-22.2v-86.4h-29.4v-18.2h81.1,0Z"/>
  </g>
</svg>