<svg width="125" height="107" viewBox="0 0 125 107" fill="none" xmlns="http://www.w3.org/2000/svg">
<g clip-path="url(#clip0_5684_2226)">
<path d="M115.26 73.7675C114.858 77.1603 112.397 78.6201 109.277 77.3331L115.26 73.7675Z" fill="url(#paint0_linear_5684_2226)"/>
<path d="M5.2655 46.2322L89.012 94.7177L89.0125 82.586L5.26601 34.1L5.2655 46.2322Z" fill="#727272"/>
<path d="M14.0537 45.0755L19.258 42.0622C20.4757 41.3573 22.1573 41.4592 24.0152 42.5344C27.7304 44.6853 30.7424 49.9169 30.7424 54.2193C30.7424 56.3702 29.9895 57.8821 28.7718 58.587L23.5675 61.6003L14.0537 45.0755Z" fill="#545454"/>
<path d="M18.8104 61.128C22.5256 63.2789 25.5376 61.5349 25.5376 57.2326C25.5376 52.9307 22.5256 47.6991 18.8104 45.5482C15.0951 43.3973 12.0826 45.1408 12.0826 49.4432C12.0831 53.745 15.0951 58.9766 18.8104 61.128Z" fill="#606060"/>
<path d="M22.5004 58.0291C22.8743 57.5067 23.0941 56.7674 23.0911 55.8452C23.0906 53.0919 21.1619 49.7426 18.7846 48.3654C17.9893 47.9018 17.241 47.7234 16.6029 47.7868C15.3316 47.9226 14.4822 49.0262 14.4807 50.8573C14.4812 53.6107 16.4098 56.96 18.7872 58.3371C20.3697 59.2507 21.7476 59.0653 22.5004 58.0291Z" fill="#D6D6D6"/>
<path d="M21.9915 57.3886C22.3144 56.9377 22.5039 56.2997 22.5013 55.5037C22.5003 53.1278 20.8365 50.2366 18.7851 49.0484C18.0989 48.6482 17.4532 48.4941 16.9024 48.5488C15.8055 48.6659 15.0723 49.6185 15.0708 51.1989C15.0718 53.5752 16.7357 56.4654 18.7876 57.6546C20.1528 58.443 21.3417 58.2824 21.9915 57.3886Z" fill="#B2B2B2"/>
<path d="M21.9915 57.3886C22.3144 56.9377 22.5039 56.2997 22.5014 55.5037C22.5003 53.1278 20.8365 50.2366 18.7851 49.0484C18.0989 48.6482 17.4532 48.4941 16.9024 48.5488C16.5796 48.9998 16.3901 49.6377 16.3926 50.4337C16.3936 52.8096 18.0575 55.7003 20.1089 56.889C20.795 57.2888 21.4408 57.4433 21.9915 57.3886Z" fill="#C1C1C1"/>
<path d="M17.9979 51.2526L19.2055 50.5533C19.488 50.3902 19.878 50.4135 20.309 50.6633C21.171 51.1624 21.8698 52.3759 21.8698 53.3741C21.8698 53.8732 21.695 54.2238 21.4126 54.3875L20.205 55.0867L17.9979 51.2526Z" fill="#B2B2B2"/>
<path d="M19.1019 54.9763C19.9639 55.4753 20.6627 55.071 20.6627 54.0728C20.6627 53.0746 19.9639 51.8606 19.1019 51.362C18.2399 50.8624 17.5411 51.2673 17.5411 52.2654C17.5406 53.2636 18.2394 54.4772 19.1019 54.9763Z" fill="#D6D6D6"/>
<path d="M55.7124 69.3542L60.9167 66.3409C62.1339 65.6361 63.816 65.7379 65.6739 66.8136C69.3891 68.9645 72.4011 74.1962 72.4011 78.498C72.4011 80.6494 71.6482 82.1609 70.4305 82.8657L65.2262 85.879L55.7124 69.3542Z" fill="#545454"/>
<path d="M60.469 85.4062C64.1843 87.5572 67.1963 85.8131 67.1963 81.5108C67.1963 77.2084 64.1843 71.9768 60.469 69.8264C56.7538 67.675 53.7418 69.419 53.7413 73.7214C53.7418 78.0237 56.7538 83.2553 60.469 85.4062Z" fill="#606060"/>
<path d="M64.1591 82.3078C64.533 81.7849 64.7528 81.0456 64.7503 80.124C64.7492 77.3706 62.8211 74.0213 60.4438 72.6441C59.649 72.1805 58.9007 72.0017 58.2625 72.0655C56.9913 72.2013 56.1419 73.3049 56.1399 75.1361C56.1409 77.8894 58.0695 81.2392 60.4463 82.6164C62.0289 83.5295 63.4062 83.344 64.1591 82.3078Z" fill="#D6D6D6"/>
<path d="M63.6502 81.6668C63.9731 81.2159 64.1626 80.578 64.16 79.7824C64.159 77.4061 62.4952 74.5154 60.4438 73.3272C59.7576 72.9269 59.1119 72.7729 58.5611 72.8276C57.4637 72.9446 56.731 73.8972 56.7295 75.4776C56.7305 77.854 58.3944 80.7447 60.4463 81.9334C61.8115 82.7213 63.0004 82.5612 63.6502 81.6668Z" fill="#B2B2B2"/>
<path d="M63.6502 81.6668C63.9731 81.2159 64.1626 80.578 64.1601 79.7824C64.159 77.4061 62.4952 74.5154 60.4438 73.3272C59.7576 72.9269 59.1119 72.7729 58.5611 72.8276C58.2383 73.2785 58.0488 73.9165 58.0508 74.712C58.0518 77.0884 59.7162 79.979 61.7676 81.1678C62.4537 81.5675 63.0995 81.7221 63.6502 81.6668Z" fill="#C1C1C1"/>
<path d="M59.6566 75.5313L60.8642 74.8321C61.1467 74.6684 61.5367 74.6922 61.9677 74.942C62.8297 75.4411 63.5285 76.6546 63.528 77.6528C63.528 78.1519 63.3537 78.5025 63.0707 78.6657L61.8631 79.3649L59.6566 75.5313Z" fill="#B2B2B2"/>
<path d="M60.7601 79.2555C61.6221 79.7546 62.3209 79.3497 62.3209 78.3515C62.3209 77.3534 61.6221 76.1393 60.7601 75.6407C59.8981 75.1416 59.1993 75.5465 59.1993 76.5447C59.1998 77.5424 59.8986 78.7564 60.7601 79.2555Z" fill="#D6D6D6"/>
<path d="M71.1981 78.1899L76.4029 75.1766C77.6201 74.4718 79.3022 74.5736 81.1596 75.6494C84.8749 77.8008 87.8868 83.0319 87.8868 87.3342C87.8868 89.4851 87.1339 90.9971 85.9162 91.7019L80.7119 94.7152L71.1981 78.1899Z" fill="#545454"/>
<path d="M75.9547 94.2425C79.67 96.3934 82.6824 94.6493 82.6824 90.347C82.6824 86.0447 79.6705 80.8136 75.9552 78.6621C72.24 76.5112 69.228 78.2548 69.228 82.5571C69.2275 86.8594 72.2395 92.091 75.9547 94.2425Z" fill="#606060"/>
<path d="M79.6448 91.1435C80.0187 90.6206 80.2385 89.8819 80.236 88.9597C80.235 86.2063 78.3068 82.8571 75.9295 81.4794C75.1347 81.0162 74.3864 80.8369 73.7483 80.9007C72.477 81.0365 71.6276 82.1401 71.6256 83.9713C71.6266 86.7247 73.5547 90.0739 75.9321 91.4516C77.5141 92.3652 78.8919 92.1797 79.6448 91.1435Z" fill="#D6D6D6"/>
<path d="M79.1359 90.5031C79.4588 90.0521 79.6483 89.4137 79.6458 88.6182C79.6453 86.2423 77.9809 83.3511 75.9295 82.1624C75.2433 81.7626 74.5976 81.6086 74.0468 81.6628C72.9499 81.7803 72.2167 82.7324 72.2152 84.3128C72.2157 86.6892 73.8801 89.5794 75.9315 90.7686C77.2972 91.5575 78.4862 91.3969 79.1359 90.5031Z" fill="#B2B2B2"/>
<path d="M79.1359 90.5031C79.4588 90.0521 79.6483 89.4137 79.6458 88.6182C79.6453 86.2423 77.9809 83.3511 75.9295 82.1624C75.2433 81.7626 74.5976 81.6086 74.0468 81.6628C73.724 82.1138 73.5345 82.7517 73.537 83.5477C73.538 85.9236 75.2024 88.8143 77.2538 90.003C77.9395 90.4033 78.5852 90.5578 79.1359 90.5031Z" fill="#C1C1C1"/>
<path d="M75.1422 84.367L76.3498 83.6678C76.6323 83.5046 77.0223 83.5279 77.4533 83.7777C78.3153 84.2768 79.0141 85.4904 79.0141 86.4885C79.0141 86.9876 78.8393 87.3383 78.5568 87.5019L77.3492 88.2007L75.1422 84.367Z" fill="#B2B2B2"/>
<path d="M76.2457 88.0912C77.1077 88.5903 77.8065 88.1855 77.8065 87.1878C77.8065 86.1896 77.1077 84.9755 76.2457 84.4765C75.3842 83.9774 74.6849 84.3822 74.6849 85.3799C74.6849 86.3781 75.3837 87.5921 76.2457 88.0912Z" fill="#D6D6D6"/>
<path d="M27.7304 29.5534V48.7652C27.7304 49.0723 27.6339 49.3038 27.4727 49.4274L27.4404 49.4543C27.4348 49.4543 27.4348 49.4543 27.4298 49.4543C27.2312 49.5891 26.9518 49.5784 26.64 49.395L18.3414 44.5911C17.2404 43.9557 16.1985 43.6542 15.2749 43.6542C13.0244 43.6542 11.4773 45.4529 11.4773 48.5661C11.4773 49.2663 10.9887 49.546 10.3869 49.1964L1.08987 43.8158C0.488599 43.4657 0 42.6144 0 41.9198V28.3201C0 27.6254 0.198572 27.0706 0.553274 26.7798L8.6528 17.7905C8.74426 17.6937 8.85693 17.6345 8.99639 17.6238C9.16262 17.602 9.35614 17.6507 9.55522 17.7637L26.64 27.6579C26.9356 27.8301 27.2095 28.1266 27.408 28.4655C27.6066 28.8101 27.7304 29.1977 27.7304 29.5534Z" fill="url(#paint1_linear_5684_2226)"/>
<path d="M25.1944 28.7954C25.493 28.9575 25.7365 29.3786 25.7325 29.7221C25.6744 35.1944 23.8493 41.6821 19.2604 40.2153C14.4922 38.6911 5.73833 34.9411 4.31497 33.2933C2.89162 31.6455 8.43194 25.0793 9.79516 22.9507C11.0088 21.0551 14.0299 22.3315 16.0227 23.4852C17.6966 24.454 23.3926 27.817 25.1944 28.7954Z" fill="#606060"/>
<path d="M56.0726 11.1711L30.2971 26.7205L27.4075 28.4655C27.2089 28.1261 26.9351 27.8301 26.6395 27.6579L9.55468 17.7632C9.35611 17.6502 9.16259 17.6015 8.99585 17.6233L37.3063 0.275136L37.3654 0.237641L37.371 0.243215C37.5751 0.119075 37.849 0.140863 38.139 0.307565L55.2238 10.2018C55.5679 10.4009 55.8736 10.7667 56.0726 11.1711Z" fill="url(#paint2_linear_5684_2226)"/>
<path d="M56.3141 12.0973V29.6507L42.8921 38.8553L27.4721 49.428C27.6333 49.3038 27.7298 49.0728 27.7298 48.7657V29.5534C27.7298 29.1982 27.606 28.8101 27.4075 28.4655L30.2971 26.7205L56.0726 11.1711C56.2227 11.4726 56.3141 11.7953 56.3141 12.0973Z" fill="url(#paint3_linear_5684_2226)"/>
<path d="M124.374 36.1359L92.6307 54.9002C92.3593 54.5233 92.0355 54.2091 91.6909 53.9998L53.808 32.0732L31.379 19.0892C30.9717 18.8485 30.5958 18.8064 30.3032 18.9427L31.5563 18.1994L61.8171 0.157075C61.9631 0.0521894 62.1304 0 62.3289 0C62.5482 0 62.7882 0.0734706 63.0596 0.219905L123.361 35.1306C123.559 35.2456 123.758 35.4027 123.935 35.5912C124.092 35.7482 124.238 35.9367 124.374 36.1359Z" fill="white"/>
<path d="M89.012 84.9989V94.7177L117.596 77.474V67.7551L89.012 84.9989Z" fill="#606060"/>
<path d="M93.3254 56.85V86.0639C93.3254 86.5382 93.1754 86.8878 92.9227 87.0712C92.6221 87.3028 92.1815 87.2977 91.6873 87.0119L31.3825 52.0992C30.4801 51.5768 29.7444 50.3005 29.7444 49.2557V20.0362C29.7444 19.5624 29.895 19.2123 30.1471 19.0289L30.1521 19.0233L30.3027 18.9372C30.5927 18.808 30.9687 18.851 31.382 19.0882L53.811 32.0742L91.6868 54.0009C92.036 54.2056 92.3634 54.5233 92.6322 54.9002V54.9058C93.0516 55.487 93.3254 56.209 93.3254 56.85Z" fill="url(#paint4_linear_5684_2226)"/>
<path d="M91.1745 56.8505V84.2332L32.4593 50.2311C32.2177 50.0912 31.8954 49.5364 31.8954 49.2562V21.8684L33.6679 22.897L90.6106 55.8701C90.6965 55.9187 90.8951 56.1072 91.0406 56.398C91.1472 56.6139 91.1745 56.7862 91.1745 56.8505Z" fill="url(#paint5_linear_5684_2226)"/>
<path d="M90.2883 57.2949V82.7603L33.3455 49.7867C33.0984 49.6468 32.7816 49.092 32.7816 48.8118V23.3413L89.7244 56.3144C89.8103 56.3631 90.0088 56.5516 90.1539 56.8424C90.261 57.0583 90.2883 57.2305 90.2883 57.2949Z" fill="url(#paint6_linear_5684_2226)"/>
<path d="M125 37.9787V67.1931C125 67.6856 124.833 68.0307 124.582 68.2086L121.178 70.2399L116.657 72.9309L116.156 73.2238L115.258 73.7685L109.776 77.0357L93.4134 86.7844L92.9228 87.0773V87.0667C93.1734 86.8888 93.33 86.5326 93.33 86.0614V56.847C93.33 56.2085 93.0481 55.486 92.6307 54.9099V54.8992L93.132 54.6059L124.374 36.1349C124.384 36.1455 124.394 36.1561 124.394 36.1663C124.76 36.7328 125 37.3925 125 37.9787Z" fill="white"/>
<path d="M125 37.9787V67.1931C125 67.6856 124.833 68.0307 124.582 68.2086L121.178 70.2399L116.657 72.9309L115.759 73.4756L115.258 73.7685L109.776 77.0357L93.4134 86.7844V86.7738C93.6746 86.596 93.8207 86.2397 93.8207 85.7685V56.5541C93.8207 55.9152 93.5493 55.1926 93.1315 54.6064L124.373 36.1354C124.384 36.146 124.394 36.1566 124.394 36.1668C124.76 36.7328 125 37.3925 125 37.9787Z" fill="url(#paint7_linear_5684_2226)"/>
<path d="M124.396 36.1191V36.1678C124.391 36.1571 124.386 36.146 124.375 36.1354L124.396 36.1191Z" fill="url(#paint8_linear_5684_2226)"/>
<path opacity="0.45" d="M124.374 36.1359L92.6307 54.9002C92.3593 54.5233 92.0355 54.2091 91.6909 53.9998L53.808 32.0732L31.379 19.0892C30.9717 18.8485 30.5958 18.8064 30.3032 18.9427L31.5563 18.1994L61.8171 0.157075C61.9631 0.0521894 62.1304 0 62.3289 0C62.5482 0 62.7882 0.0734706 63.0596 0.219905L123.361 35.1306C123.559 35.2456 123.758 35.4027 123.935 35.5912C124.092 35.7482 124.238 35.9367 124.374 36.1359Z" fill="white"/>
<path d="M123.935 35.5912L92.7975 53.9993C92.5262 53.6224 92.2023 53.3082 91.8471 53.1096L53.9748 31.1829L31.5569 18.1989L61.8172 0.157075C61.9632 0.0521894 62.1304 0 62.329 0C62.5483 0 62.7883 0.0734706 63.0597 0.219905L123.361 35.1306C123.559 35.2456 123.758 35.4027 123.935 35.5912Z" fill="url(#paint9_linear_5684_2226)"/>
<path opacity="0.45" d="M9.55469 17.7632C9.55469 17.7632 25.872 26.4094 26.5339 26.8076C27.1958 27.2059 27.4075 27.4501 27.4075 27.4501L29.7439 26.0116V27.0549L27.4075 28.466C27.4075 28.466 27.1655 27.9624 26.5106 27.5834C25.8563 27.2034 9.55469 17.7632 9.55469 17.7632Z" fill="white"/>
<path opacity="0.45" d="M27.7304 28.2705C28.1559 28.7209 28.1392 28.8871 28.1392 30.8445C28.1392 32.8023 27.7304 48.0665 27.7304 48.0665C27.7304 48.0665 27.7304 30.658 27.7304 29.6836C27.7304 28.9089 27.4081 28.4645 27.4081 28.4645L27.7304 28.2705Z" fill="white"/>
<path d="M23.57 82.2896L8.25818 73.4245V88.6998L23.57 97.5649L44.4782 85.4589V70.1842L23.57 82.2896Z" fill="url(#paint10_linear_5684_2226)"/>
<path d="M44.4762 70.1816L23.571 82.2906L16.9479 78.4564L15.1941 77.4405L8.26025 73.426L29.1649 61.3165L36.1043 65.3366L37.8581 66.3525L44.4762 70.1816Z" fill="url(#paint11_linear_5684_2226)"/>
<path d="M37.8581 66.3525L16.9479 78.4564L15.1941 77.4405L36.1043 65.3366L37.8581 66.3525Z" fill="url(#paint12_linear_5684_2226)"/>
<path d="M16.9479 85.6636L15.1941 84.6472V77.4405L16.9479 78.4564V85.6636Z" fill="url(#paint13_linear_5684_2226)"/>
<path d="M39.4897 91.7252L24.1779 82.8601V98.1349L39.4897 107L60.3979 94.8946V79.6198L39.4897 91.7252Z" fill="url(#paint14_linear_5684_2226)"/>
<path d="M60.3954 79.6168L39.4912 91.7262L32.8676 87.8921L31.1138 86.8757L24.1804 82.8616L45.0851 70.7516L52.024 74.7723L53.7778 75.7882L60.3954 79.6168Z" fill="url(#paint15_linear_5684_2226)"/>
<path d="M53.7778 75.7882L32.8676 87.8921L31.1138 86.8757L52.024 74.7723L53.7778 75.7882Z" fill="url(#paint16_linear_5684_2226)"/>
<path d="M32.8676 95.0988L31.1138 94.0829V86.8757L32.8676 87.8921V95.0988Z" fill="url(#paint17_linear_5684_2226)"/>
<path d="M31.0713 71.3708L15.76 62.5052V77.78L31.0713 86.6456L51.9795 74.5397V59.2649L31.0713 71.3708Z" fill="url(#paint18_linear_5684_2226)"/>
<path d="M51.9775 59.2624L31.0729 71.3713L24.4497 67.5372L22.6959 66.5213L15.7621 62.5067L36.6667 50.3973L43.6057 54.4174L45.36 55.4338L51.9775 59.2624Z" fill="url(#paint19_linear_5684_2226)"/>
<path d="M45.3599 55.4338L24.4497 67.5372L22.6959 66.5213L43.6056 54.4174L45.3599 55.4338Z" fill="url(#paint20_linear_5684_2226)"/>
<path d="M24.4492 74.7444L22.6954 73.7285L22.6959 66.5213L24.4497 67.5372L24.4492 74.7444Z" fill="url(#paint21_linear_5684_2226)"/>
</g>
<defs>
<linearGradient id="paint0_linear_5684_2226" x1="107.737" y1="79.1379" x2="119.645" y2="72.6155" gradientUnits="userSpaceOnUse">
<stop stop-color="#FDC830"/>
<stop offset="0.2875" stop-color="#FAB031"/>
<stop offset="1" stop-color="#F37335"/>
</linearGradient>
<linearGradient id="paint1_linear_5684_2226" x1="-8.10208" y1="48.0093" x2="44.4888" y2="19.2045" gradientUnits="userSpaceOnUse">
<stop stop-color="#FDC830"/>
<stop offset="0.2875" stop-color="#FAB031"/>
<stop offset="1" stop-color="#F37335"/>
</linearGradient>
<linearGradient id="paint2_linear_5684_2226" x1="49.7924" y1="22.145" x2="1.5435" y2="0.262926" gradientUnits="userSpaceOnUse">
<stop stop-color="#FDC830"/>
<stop offset="0.2875" stop-color="#FAB031"/>
<stop offset="1" stop-color="#F37335"/>
</linearGradient>
<linearGradient id="paint3_linear_5684_2226" x1="25.9973" y1="53.2952" x2="52.1069" y2="13.6272" gradientUnits="userSpaceOnUse">
<stop stop-color="#FDC830"/>
<stop offset="0.2875" stop-color="#FAB031"/>
<stop offset="1" stop-color="#F37335"/>
</linearGradient>
<linearGradient id="paint4_linear_5684_2226" x1="23.6548" y1="73.9165" x2="114.036" y2="24.4132" gradientUnits="userSpaceOnUse">
<stop stop-color="#F3F7FF"/>
<stop offset="1" stop-color="#CDD9FF"/>
</linearGradient>
<linearGradient id="paint5_linear_5684_2226" x1="22.6868" y1="48.7384" x2="121.095" y2="59.6017" gradientUnits="userSpaceOnUse">
<stop stop-color="#F3F7FF"/>
<stop offset="1" stop-color="#CDD9FF"/>
</linearGradient>
<linearGradient id="paint6_linear_5684_2226" x1="82.6529" y1="72.8535" x2="32.2311" y2="25.8404" gradientUnits="userSpaceOnUse">
<stop stop-color="#F3F7FF"/>
<stop offset="1" stop-color="#CDD9FF"/>
</linearGradient>
<linearGradient id="paint7_linear_5684_2226" x1="90.2416" y1="80.8397" x2="146.696" y2="22.2702" gradientUnits="userSpaceOnUse">
<stop stop-color="#F3F7FF"/>
<stop offset="1" stop-color="#CDD9FF"/>
</linearGradient>
<linearGradient id="paint8_linear_5684_2226" x1="124.383" y1="36.1504" x2="124.406" y2="36.1377" gradientUnits="userSpaceOnUse">
<stop stop-color="#F3F7FF"/>
<stop offset="1" stop-color="#CDD9FF"/>
</linearGradient>
<linearGradient id="paint9_linear_5684_2226" x1="45.895" y1="44.3769" x2="109.628" y2="9.46946" gradientUnits="userSpaceOnUse">
<stop stop-color="#F3F7FF"/>
<stop offset="1" stop-color="#CDD9FF"/>
</linearGradient>
<linearGradient id="paint10_linear_5684_2226" x1="23.305" y1="83.8746" x2="23.8231" y2="83.8746" gradientUnits="userSpaceOnUse">
<stop stop-color="#F3F7FF"/>
<stop offset="1" stop-color="#CDD9FF"/>
</linearGradient>
<linearGradient id="paint11_linear_5684_2226" x1="45.9385" y1="71.3986" x2="5.80575" y2="72.2247" gradientUnits="userSpaceOnUse">
<stop stop-color="#F3F7FF"/>
<stop offset="1" stop-color="#CDD9FF"/>
</linearGradient>
<linearGradient id="paint12_linear_5684_2226" x1="15.1941" y1="71.8965" x2="37.858" y2="71.8965" gradientUnits="userSpaceOnUse">
<stop stop-color="#FDC830"/>
<stop offset="0.2875" stop-color="#FAB031"/>
<stop offset="1" stop-color="#F37335"/>
</linearGradient>
<linearGradient id="paint13_linear_5684_2226" x1="12.8357" y1="83.334" x2="20.5553" y2="79.1059" gradientUnits="userSpaceOnUse">
<stop stop-color="#FDC830"/>
<stop offset="0.2875" stop-color="#FAB031"/>
<stop offset="1" stop-color="#F37335"/>
</linearGradient>
<linearGradient id="paint14_linear_5684_2226" x1="39.2249" y1="93.31" x2="39.7431" y2="93.31" gradientUnits="userSpaceOnUse">
<stop stop-color="#F3F7FF"/>
<stop offset="1" stop-color="#CDD9FF"/>
</linearGradient>
<linearGradient id="paint15_linear_5684_2226" x1="61.858" y1="80.8341" x2="21.7256" y2="81.6601" gradientUnits="userSpaceOnUse">
<stop stop-color="#F3F7FF"/>
<stop offset="1" stop-color="#CDD9FF"/>
</linearGradient>
<linearGradient id="paint16_linear_5684_2226" x1="31.1139" y1="81.3322" x2="53.7778" y2="81.3322" gradientUnits="userSpaceOnUse">
<stop stop-color="#FDC830"/>
<stop offset="0.2875" stop-color="#FAB031"/>
<stop offset="1" stop-color="#F37335"/>
</linearGradient>
<linearGradient id="paint17_linear_5684_2226" x1="28.7553" y1="92.7695" x2="36.475" y2="88.5412" gradientUnits="userSpaceOnUse">
<stop stop-color="#FDC830"/>
<stop offset="0.2875" stop-color="#FAB031"/>
<stop offset="1" stop-color="#F37335"/>
</linearGradient>
<linearGradient id="paint18_linear_5684_2226" x1="30.8066" y1="72.9553" x2="31.3247" y2="72.9553" gradientUnits="userSpaceOnUse">
<stop stop-color="#F3F7FF"/>
<stop offset="1" stop-color="#CDD9FF"/>
</linearGradient>
<linearGradient id="paint19_linear_5684_2226" x1="53.44" y1="60.4793" x2="13.3074" y2="61.3054" gradientUnits="userSpaceOnUse">
<stop stop-color="#F3F7FF"/>
<stop offset="1" stop-color="#CDD9FF"/>
</linearGradient>
<linearGradient id="paint20_linear_5684_2226" x1="22.6959" y1="60.9773" x2="45.3597" y2="60.9773" gradientUnits="userSpaceOnUse">
<stop stop-color="#FDC830"/>
<stop offset="0.2875" stop-color="#FAB031"/>
<stop offset="1" stop-color="#F37335"/>
</linearGradient>
<linearGradient id="paint21_linear_5684_2226" x1="20.337" y1="72.415" x2="28.0571" y2="68.1865" gradientUnits="userSpaceOnUse">
<stop stop-color="#FDC830"/>
<stop offset="0.2875" stop-color="#FAB031"/>
<stop offset="1" stop-color="#F37335"/>
</linearGradient>
<clipPath id="clip0_5684_2226">
<rect width="125" height="107" fill="white"/>
</clipPath>
</defs>
</svg>
