<svg width="130" height="107" viewBox="0 0 130 107" fill="none" xmlns="http://www.w3.org/2000/svg">
<g clip-path="url(#clip0_5684_2295)">
<path d="M10.1204 76.4329C10.539 79.9484 13.0951 81.4613 16.3371 80.1272L10.1204 76.4329Z" fill="url(#paint0_linear_5684_2295)"/>
<path d="M124.41 47.9029L37.3933 98.1406V85.5703L124.41 35.332V47.9029Z" fill="#727272"/>
<path d="M115.279 46.7044L109.872 43.582C108.607 42.8517 106.859 42.9573 104.929 44.0718C101.068 46.301 97.9389 51.7212 97.9389 56.1789C97.9389 58.4075 98.7214 59.9737 99.9868 60.7041L105.394 63.8264L115.279 46.7044Z" fill="#545454"/>
<path d="M110.337 63.3366C106.476 65.5657 103.346 63.7584 103.346 59.3007C103.346 54.8436 106.476 49.4227 110.336 47.1942C114.196 44.965 117.326 46.7724 117.326 51.2301C117.326 55.6872 114.197 61.1074 110.337 63.3366Z" fill="#606060"/>
<path d="M106.502 60.1264C106.114 59.585 105.885 58.8191 105.889 57.8635C105.889 55.0109 107.893 51.5406 110.363 50.113C111.189 49.6327 111.967 49.4475 112.63 49.5131C113.95 49.6537 114.833 50.7975 114.835 52.6946C114.835 55.5479 112.831 59.0182 110.36 60.4451C108.716 61.3924 107.285 61.1997 106.502 60.1264Z" fill="#D6D6D6"/>
<path d="M107.031 59.4623C106.695 58.9947 106.499 58.3337 106.501 57.5092C106.502 55.0472 108.231 52.0521 110.363 50.8204C111.076 50.4063 111.747 50.2459 112.319 50.3026C113.459 50.4241 114.221 51.4108 114.223 53.0483C114.222 55.5103 112.493 58.5054 110.361 59.7371C108.942 60.5546 107.706 60.3885 107.031 59.4623Z" fill="#B2B2B2"/>
<path d="M107.031 59.4623C106.695 58.9947 106.499 58.3337 106.501 57.5092C106.502 55.0472 108.231 52.0521 110.363 50.8204C111.076 50.4063 111.747 50.2459 112.319 50.3026C112.654 50.7702 112.852 51.4311 112.849 52.2556C112.848 54.7176 111.119 57.7128 108.987 58.9444C108.274 59.3592 107.603 59.5189 107.031 59.4623Z" fill="#C1C1C1"/>
<path d="M111.181 53.1049L109.926 52.381C109.633 52.2111 109.227 52.2359 108.779 52.4942C107.884 53.0114 107.158 54.2691 107.158 55.3029C107.158 55.8201 107.339 56.1834 107.633 56.3526L108.888 57.0772L111.181 53.1049Z" fill="#B2B2B2"/>
<path d="M110.034 56.9627C109.138 57.4799 108.412 57.0607 108.412 56.0263C108.412 54.9918 109.138 53.7348 110.034 53.2175C110.93 52.7003 111.656 53.1196 111.656 54.154C111.656 55.1884 110.93 56.4461 110.034 56.9627Z" fill="#D6D6D6"/>
<path d="M71.9937 71.8601L66.5862 68.7384C65.3209 68.008 63.5733 68.1136 61.6431 69.2276C57.7828 71.4561 54.6534 76.877 54.6534 81.3347C54.6534 83.5638 55.4359 85.1295 56.7013 85.8598L62.1088 88.9815L71.9937 71.8601Z" fill="#545454"/>
<path d="M67.0506 88.4923C63.1903 90.7215 60.0603 88.9141 60.0603 84.4564C60.0603 79.9987 63.1897 74.5785 67.05 72.3493C70.9109 70.1208 74.0403 71.9275 74.0403 76.3852C74.0409 80.8435 70.9116 86.2638 67.0506 88.4923Z" fill="#606060"/>
<path d="M63.217 85.2822C62.8283 84.7408 62.5999 83.9748 62.6031 83.0193C62.6043 80.1667 64.6077 76.6963 67.0779 75.2687C67.9037 74.7884 68.6811 74.6033 69.3446 74.6694C70.6653 74.81 71.5477 75.9533 71.5496 77.851C71.549 80.7036 69.545 84.1739 67.0748 85.6015C65.4309 86.5482 63.9995 86.3554 63.217 85.2822Z" fill="#D6D6D6"/>
<path d="M63.7457 84.618C63.4104 84.151 63.2132 83.49 63.2157 82.6649C63.2164 80.2029 64.9455 77.2078 67.0773 75.9768C67.7905 75.562 68.461 75.4017 69.0336 75.4589C70.1736 75.5805 70.9351 76.5672 70.937 78.2047C70.9364 80.6667 69.2066 83.6612 67.0754 84.8928C65.6561 85.7109 64.4206 85.5449 63.7457 84.618Z" fill="#B2B2B2"/>
<path d="M63.7457 84.618C63.4104 84.151 63.2132 83.49 63.2157 82.6649C63.2164 80.2029 64.9455 77.2078 67.0773 75.9768C67.7905 75.562 68.461 75.4017 69.0336 75.4589C69.3695 75.9259 69.566 76.5869 69.5641 77.4114C69.5629 79.8734 67.8337 82.8685 65.7019 84.1001C64.9888 84.5156 64.3176 84.6752 63.7457 84.618Z" fill="#C1C1C1"/>
<path d="M67.8949 78.2607L66.6404 77.5361C66.3471 77.3668 65.9412 77.391 65.4933 77.6499C64.5982 78.1671 63.8717 79.4242 63.8717 80.4587C63.8717 80.9759 64.053 81.3391 64.3469 81.509L65.6015 82.233L67.8949 78.2607Z" fill="#B2B2B2"/>
<path d="M66.7484 82.1191C65.8527 82.6357 65.1268 82.2171 65.1268 81.1826C65.1268 80.1482 65.8527 78.8905 66.7484 78.3733C67.6442 77.8561 68.3701 78.2753 68.3701 79.3097C68.3701 80.3448 67.6442 81.6025 66.7484 82.1191Z" fill="#D6D6D6"/>
<path d="M55.9028 81.0153L50.4953 77.893C49.2299 77.1626 47.483 77.2682 45.5522 78.3828C41.6919 80.6113 38.5625 86.0322 38.5625 90.4899C38.5625 92.7184 39.345 94.2847 40.6097 95.015L46.0172 98.1374L55.9028 81.0153Z" fill="#545454"/>
<path d="M50.961 97.6475C47.1007 99.8767 43.9707 98.0693 43.9707 93.6116C43.9707 89.1539 47.1001 83.7337 50.9604 81.5045C54.8213 79.276 57.9507 81.0828 57.9507 85.5404C57.9507 89.9988 54.8213 95.419 50.961 97.6475Z" fill="#606060"/>
<path d="M47.1268 94.4374C46.7381 93.896 46.5097 93.13 46.5129 92.1745C46.5141 89.3219 48.5174 85.8515 50.9877 84.424C51.8135 83.9436 52.5915 83.7585 53.2544 83.824C54.5751 83.9646 55.4575 85.1085 55.4601 87.0056C55.4588 89.8588 53.4555 93.3292 50.9852 94.7561C49.34 95.7034 47.9086 95.5106 47.1268 94.4374Z" fill="#D6D6D6"/>
<path d="M47.6554 93.7732C47.3202 93.3056 47.123 92.6447 47.1255 91.8202C47.1261 89.3582 48.8553 86.363 50.9871 85.1314C51.6996 84.7166 52.3708 84.5569 52.9434 84.6135C54.0834 84.7351 54.8449 85.7218 54.8462 87.3593C54.8455 89.8213 53.1164 92.8164 50.9846 94.0481C49.5659 94.8655 48.3304 94.6995 47.6554 93.7732Z" fill="#B2B2B2"/>
<path d="M47.6554 93.7732C47.3202 93.3056 47.123 92.6447 47.1255 91.8202C47.1261 89.3582 48.8553 86.363 50.9871 85.1314C51.6996 84.7166 52.3708 84.5569 52.9434 84.6135C53.2786 85.0811 53.4758 85.7421 53.4733 86.5666C53.472 89.0286 51.7429 92.0237 49.6111 93.2554C48.8985 93.6708 48.2274 93.8299 47.6554 93.7732Z" fill="#C1C1C1"/>
<path d="M51.8046 87.4159L50.55 86.6919C50.2567 86.5227 49.8509 86.5469 49.403 86.8052C48.5073 87.3224 47.7814 88.5795 47.7814 89.6139C47.7814 90.1311 47.9627 90.4937 48.2566 90.6636L49.5111 91.3876L51.8046 87.4159Z" fill="#B2B2B2"/>
<path d="M50.6581 91.2743C49.7624 91.7915 49.0365 91.3723 49.0365 90.3379C49.0365 89.3034 49.7624 88.0464 50.6581 87.5291C51.5539 87.0119 52.2797 87.4312 52.2797 88.4656C52.2797 89.5 51.5539 90.7571 50.6581 91.2743Z" fill="#D6D6D6"/>
<path d="M101.069 30.6211V50.5278C101.069 50.8459 101.169 51.0857 101.337 51.2142L101.37 51.2422C101.376 51.2422 101.376 51.2422 101.381 51.2422C101.587 51.3822 101.877 51.3707 102.201 51.1811L110.823 46.203C111.967 45.5446 113.049 45.2322 114.009 45.2322C116.348 45.2322 117.955 47.0962 117.955 50.3217C117.955 51.0475 118.463 51.337 119.088 50.975L128.748 45.4002C129.373 45.0376 129.881 44.1558 129.881 43.4357V29.3437C129.881 28.6235 129.675 28.0491 129.306 27.7475L120.89 18.4332C120.796 18.3327 120.678 18.271 120.533 18.2602C120.36 18.2379 120.159 18.2882 119.953 18.4053L102.201 28.6573C101.894 28.836 101.609 29.1427 101.403 29.4945C101.197 29.8514 101.069 30.2528 101.069 30.6211Z" fill="url(#paint1_linear_5684_2295)"/>
<path d="M103.703 29.8361C103.392 30.004 103.14 30.4405 103.143 30.7967C103.204 36.4663 105.1 43.1888 109.868 41.669C114.822 40.0894 123.918 36.2042 125.398 34.4967C126.876 32.7892 121.12 25.9859 119.703 23.7803C118.442 21.8164 115.303 23.1391 113.233 24.3344C111.494 25.3377 105.576 28.8227 103.703 29.8361Z" fill="#606060"/>
<path d="M71.619 11.5746L98.4008 27.6858L101.404 29.4938C101.61 29.1427 101.895 28.8354 102.201 28.6566L119.953 18.4046C120.159 18.2876 120.361 18.2373 120.534 18.2596L91.1184 0.285009L91.0574 0.245566L91.0516 0.251291C90.8398 0.122783 90.5554 0.145049 90.2539 0.31809L72.5013 10.5695C72.1438 10.7769 71.8257 11.156 71.619 11.5746Z" fill="url(#paint2_linear_5684_2295)"/>
<path d="M71.3683 12.5346V30.7217L85.3139 40.2592L101.336 51.2136C101.169 51.0857 101.068 50.8452 101.068 50.5271V30.6211C101.068 30.2528 101.196 29.8514 101.403 29.4938L98.4001 27.6858L71.6183 11.5746C71.4631 11.887 71.3683 12.2222 71.3683 12.5346Z" fill="url(#paint3_linear_5684_2295)"/>
<path d="M0.650757 37.4416L33.6334 56.8838C33.9152 56.4932 34.2518 56.1681 34.6099 55.9506L73.9721 33.232L97.2766 19.7788C97.6997 19.5294 98.0903 19.4861 98.3944 19.6267L97.0927 18.8569L65.6503 0.162861C65.4983 0.0540751 65.3246 0 65.1191 0C64.8913 0 64.6413 0.0757051 64.3595 0.227752L1.70299 36.4002C1.49687 36.5191 1.29075 36.682 1.10626 36.8773C0.944035 37.0402 0.791988 37.2355 0.650757 37.4416Z" fill="white"/>
<path d="M37.3932 88.0705V98.1406L7.69324 80.2735V70.2035L37.3932 88.0705Z" fill="#606060"/>
<path d="M32.912 58.9043V89.1737C32.912 89.6648 33.0678 90.0274 33.3306 90.2176C33.643 90.4575 34.1004 90.4524 34.6138 90.1559L97.2734 53.9822C98.2112 53.4408 98.9752 52.1182 98.9752 51.0354V20.7604C98.9752 20.2693 98.8187 19.9066 98.5566 19.7164L98.5509 19.7107L98.395 19.6216C98.0935 19.488 97.7029 19.5319 97.2734 19.7775L73.969 33.2327L34.6138 55.9518C34.2511 56.1637 33.9108 56.4932 33.6315 56.8838V56.8896C33.1964 57.4926 32.912 58.2402 32.912 58.9043Z" fill="url(#paint4_linear_5684_2295)"/>
<path d="M35.1469 58.905V87.2772L96.1544 52.0463C96.4057 51.9013 96.7403 51.3268 96.7403 51.0367V22.6587L94.8986 23.7243L35.7328 57.8896C35.6437 57.9399 35.4369 58.1346 35.2862 58.4367C35.1748 58.6594 35.1469 58.8382 35.1469 58.905Z" fill="#E3E3E3"/>
<path d="M36.0674 59.3656V85.751L95.2338 51.5857C95.4902 51.4407 95.8197 50.8662 95.8197 50.5761V24.1849L36.6533 58.3502C36.5642 58.4005 36.3575 58.5958 36.2067 58.8973C36.0954 59.12 36.0674 59.2988 36.0674 59.3656Z" fill="url(#paint5_linear_5684_2295)"/>
<path d="M0 39.3514V69.6214C0 70.1316 0.173677 70.4891 0.433873 70.6736L3.97102 72.7787L8.66856 75.5671L9.18959 75.8706L10.1229 76.4348L15.8186 79.82L32.8198 89.9212L33.33 90.2246V90.2138C33.0698 90.0293 32.9069 89.6603 32.9069 89.1724V58.9018C32.9069 58.2402 33.1996 57.4914 33.6341 56.8946V56.8838L33.113 56.5804L0.65081 37.4416C0.639995 37.4524 0.62918 37.4632 0.62918 37.474C0.249382 38.06 0 38.7439 0 39.3514Z" fill="white"/>
<path d="M0 39.3514V69.6214C0 70.1316 0.173677 70.4891 0.433873 70.6736L3.97102 72.7787L8.66856 75.5671L9.60183 76.1314L10.1229 76.4355L15.8186 79.8206L32.8198 89.9218V89.911C32.5488 89.7265 32.3967 89.3575 32.3967 88.8696V58.5983C32.3967 57.9367 32.6785 57.1879 33.113 56.5804L0.65081 37.4416C0.639995 37.4524 0.62918 37.4632 0.62918 37.474C0.249382 38.06 0 38.7439 0 39.3514Z" fill="url(#paint6_linear_5684_2295)"/>
<path d="M0.627319 37.4244V37.4747C0.633045 37.4632 0.638134 37.4524 0.649586 37.4416L0.627319 37.4244Z" fill="url(#paint7_linear_5684_2295)"/>
<path opacity="0.45" d="M0.650757 37.4416L33.6334 56.8838C33.9152 56.4932 34.2518 56.1681 34.6099 55.9506L73.9721 33.232L97.2766 19.7788C97.6997 19.5294 98.0903 19.4861 98.3944 19.6267L97.0927 18.8569L65.6503 0.162861C65.4983 0.0540751 65.3246 0 65.1191 0C64.8913 0 64.6413 0.0757051 64.3595 0.227752L1.70299 36.4002C1.49687 36.5191 1.29075 36.682 1.10626 36.8773C0.944035 37.0402 0.791988 37.2355 0.650757 37.4416Z" fill="white"/>
<path d="M1.10632 36.8773L33.4598 55.9506C33.7416 55.5599 34.0781 55.2342 34.4471 55.0281L73.7985 32.3089L97.0922 18.8557L65.6504 0.162861C65.4983 0.0540751 65.3246 0 65.1192 0C64.8914 0 64.6414 0.0757051 64.3596 0.227752L1.70306 36.4002C1.49694 36.5191 1.29081 36.682 1.10632 36.8773Z" fill="url(#paint8_linear_5684_2295)"/>
<path opacity="0.45" d="M119.953 18.4053C119.953 18.4053 102.998 27.3639 102.311 27.7762C101.624 28.189 101.403 28.4416 101.403 28.4416L98.9752 26.951V28.0319L101.403 29.4938C101.403 29.4938 101.655 28.9722 102.335 28.5796C103.016 28.1865 119.953 18.4053 119.953 18.4053Z" fill="white"/>
<path opacity="0.45" d="M101.069 29.2922C100.627 29.7591 100.644 29.9309 100.644 31.9597C100.644 33.9878 101.069 49.8038 101.069 49.8038C101.069 49.8038 101.069 31.7663 101.069 30.7566C101.069 29.9538 101.404 29.4938 101.404 29.4938L101.069 29.2922Z" fill="white"/>
<path d="M89.0254 81.397L73.1159 72.2113V88.0381L89.0254 97.2239L110.75 84.6803V68.8542L89.0254 81.397Z" fill="url(#paint9_linear_5684_2295)"/>
<path d="M110.748 68.851L89.0274 81.3977L82.1452 77.4247L80.3225 76.3725L73.1185 72.2125L94.8395 59.6658L102.05 63.8309L103.872 64.8838L110.748 68.851Z" fill="url(#paint10_linear_5684_2295)"/>
<path d="M103.872 64.8838L82.1452 77.4247L80.3225 76.3725L102.05 63.8309L103.872 64.8838Z" fill="url(#paint11_linear_5684_2295)"/>
<path d="M82.1452 84.8928L80.3225 83.8399V76.3725L82.1452 77.4247V84.8928Z" fill="url(#paint12_linear_5684_2295)"/>
<path d="M105.567 91.1732L89.6578 81.9874V97.8149L105.567 107L127.292 94.4571V78.6303L105.567 91.1732Z" fill="url(#paint13_linear_5684_2295)"/>
<path d="M127.29 78.6271L105.569 91.1744L98.6864 87.2015L96.8644 86.1486L89.6603 81.9893L111.381 69.4426L118.591 73.6077L120.413 74.6599L127.29 78.6271Z" fill="url(#paint14_linear_5684_2295)"/>
<path d="M120.413 74.6599L98.6864 87.2015L96.8644 86.1486L118.591 73.6077L120.413 74.6599Z" fill="url(#paint15_linear_5684_2295)"/>
<path d="M98.6864 94.669L96.8644 93.6161V86.1486L98.6864 87.2015V94.669Z" fill="url(#paint16_linear_5684_2295)"/>
<path d="M96.8205 70.0832L80.9103 60.8975V76.7243L96.8205 85.9101L118.545 73.3672V57.5397L96.8205 70.0832Z" fill="url(#paint17_linear_5684_2295)"/>
<path d="M118.543 57.5372L96.8218 70.0845L89.9396 66.1109L88.1176 65.0587L80.9129 60.8994L102.634 48.352L109.844 52.5171L111.666 53.57L118.543 57.5372Z" fill="url(#paint18_linear_5684_2295)"/>
<path d="M111.666 53.57L89.9396 66.1109L88.1176 65.0587L109.844 52.5171L111.666 53.57Z" fill="url(#paint19_linear_5684_2295)"/>
<path d="M89.9396 73.5784L88.1176 72.5262V65.0587L89.9396 66.1109V73.5784Z" fill="url(#paint20_linear_5684_2295)"/>
</g>
<defs>
<linearGradient id="paint0_linear_5684_2295" x1="17.937" y1="81.9977" x2="5.57993" y2="75.2105" gradientUnits="userSpaceOnUse">
<stop stop-color="#FDC830"/>
<stop offset="0.2875" stop-color="#FAB031"/>
<stop offset="1" stop-color="#F37335"/>
</linearGradient>
<linearGradient id="paint1_linear_5684_2295" x1="138.3" y1="49.7442" x2="83.726" y2="19.7691" gradientUnits="userSpaceOnUse">
<stop stop-color="#FFB888"/>
<stop offset="0.2875" stop-color="#FF9B57"/>
<stop offset="1" stop-color="#FF6801"/>
</linearGradient>
<linearGradient id="paint2_linear_5684_2295" x1="78.1445" y1="22.9453" x2="128.23" y2="0.166544" gradientUnits="userSpaceOnUse">
<stop stop-color="#FFB888"/>
<stop offset="0.2875" stop-color="#FF9B57"/>
<stop offset="1" stop-color="#FF6801"/>
</linearGradient>
<linearGradient id="paint3_linear_5684_2295" x1="102.869" y1="55.2211" x2="75.8458" y2="14.0499" gradientUnits="userSpaceOnUse">
<stop stop-color="#FFB888"/>
<stop offset="0.2875" stop-color="#FF9B57"/>
<stop offset="1" stop-color="#FF6801"/>
</linearGradient>
<linearGradient id="paint4_linear_5684_2295" x1="105.303" y1="76.5877" x2="11.5138" y2="25.0736" gradientUnits="userSpaceOnUse">
<stop stop-color="#E2E3E5"/>
<stop offset="1" stop-color="#EFEFEF"/>
</linearGradient>
<linearGradient id="paint5_linear_5684_2295" x1="44.0007" y1="75.4863" x2="96.2548" y2="26.6278" gradientUnits="userSpaceOnUse">
<stop stop-color="#E2E3E5"/>
<stop offset="1" stop-color="#EFEFEF"/>
</linearGradient>
<linearGradient id="paint6_linear_5684_2295" x1="36.1159" y1="83.761" x2="-22.3726" y2="22.911" gradientUnits="userSpaceOnUse">
<stop stop-color="#E2E3E5"/>
<stop offset="1" stop-color="#EFEFEF"/>
</linearGradient>
<linearGradient id="paint7_linear_5684_2295" x1="0.641309" y1="37.4569" x2="0.616988" y2="37.4436" gradientUnits="userSpaceOnUse">
<stop stop-color="#F3F7FF"/>
<stop offset="1" stop-color="#CDD9FF"/>
</linearGradient>
<linearGradient id="paint8_linear_5684_2295" x1="82.1942" y1="45.9805" x2="16.0586" y2="9.6552" gradientUnits="userSpaceOnUse">
<stop stop-color="#E2E3E5"/>
<stop offset="1" stop-color="#EFEFEF"/>
</linearGradient>
<linearGradient id="paint9_linear_5684_2295" x1="88.7506" y1="83.039" x2="89.289" y2="83.039" gradientUnits="userSpaceOnUse">
<stop stop-color="#EEEEEE"/>
<stop offset="0.2067" stop-color="#EFEFEF"/>
<stop offset="1" stop-color="#E2E3E5"/>
</linearGradient>
<linearGradient id="paint10_linear_5684_2295" x1="112.268" y1="70.1123" x2="70.5681" y2="70.973" gradientUnits="userSpaceOnUse">
<stop stop-color="#EEEEEE"/>
<stop offset="0.2067" stop-color="#EFEFEF"/>
<stop offset="1" stop-color="#E2E3E5"/>
</linearGradient>
<linearGradient id="paint11_linear_5684_2295" x1="80.3228" y1="70.6281" x2="103.872" y2="70.6281" gradientUnits="userSpaceOnUse">
<stop stop-color="#00B3FE"/>
<stop offset="1" stop-color="#66D1FF"/>
</linearGradient>
<linearGradient id="paint12_linear_5684_2295" x1="77.8723" y1="82.479" x2="85.8833" y2="78.0789" gradientUnits="userSpaceOnUse">
<stop stop-color="#00B3FE"/>
<stop offset="1" stop-color="#66D1FF"/>
</linearGradient>
<linearGradient id="paint13_linear_5684_2295" x1="105.292" y1="92.8152" x2="105.83" y2="92.8152" gradientUnits="userSpaceOnUse">
<stop stop-color="#EEEEEE"/>
<stop offset="0.2067" stop-color="#EFEFEF"/>
<stop offset="1" stop-color="#E2E3E5"/>
</linearGradient>
<linearGradient id="paint14_linear_5684_2295" x1="128.809" y1="79.8887" x2="87.1098" y2="80.7494" gradientUnits="userSpaceOnUse">
<stop stop-color="#EEEEEE"/>
<stop offset="0.2067" stop-color="#EFEFEF"/>
<stop offset="1" stop-color="#E2E3E5"/>
</linearGradient>
<linearGradient id="paint15_linear_5684_2295" x1="96.8642" y1="80.4045" x2="120.413" y2="80.4045" gradientUnits="userSpaceOnUse">
<stop stop-color="#00B3FE"/>
<stop offset="1" stop-color="#66D1FF"/>
</linearGradient>
<linearGradient id="paint16_linear_5684_2295" x1="94.4136" y1="92.2553" x2="102.425" y2="87.8552" gradientUnits="userSpaceOnUse">
<stop stop-color="#00B3FE"/>
<stop offset="1" stop-color="#66D1FF"/>
</linearGradient>
<linearGradient id="paint17_linear_5684_2295" x1="96.5451" y1="71.7251" x2="97.0835" y2="71.7251" gradientUnits="userSpaceOnUse">
<stop stop-color="#EEEEEE"/>
<stop offset="0.2067" stop-color="#EFEFEF"/>
<stop offset="1" stop-color="#E2E3E5"/>
</linearGradient>
<linearGradient id="paint18_linear_5684_2295" x1="120.063" y1="58.7984" x2="78.3626" y2="59.6591" gradientUnits="userSpaceOnUse">
<stop stop-color="#EEEEEE"/>
<stop offset="0.2067" stop-color="#EFEFEF"/>
<stop offset="1" stop-color="#E2E3E5"/>
</linearGradient>
<linearGradient id="paint19_linear_5684_2295" x1="88.1174" y1="59.3143" x2="111.666" y2="59.3143" gradientUnits="userSpaceOnUse">
<stop stop-color="#00B3FE"/>
<stop offset="1" stop-color="#66D1FF"/>
</linearGradient>
<linearGradient id="paint20_linear_5684_2295" x1="85.6669" y1="71.1651" x2="93.6775" y2="66.7652" gradientUnits="userSpaceOnUse">
<stop stop-color="#00B3FE"/>
<stop offset="1" stop-color="#66D1FF"/>
</linearGradient>
<clipPath id="clip0_5684_2295">
<rect width="129.881" height="107" fill="white"/>
</clipPath>
</defs>
</svg>
