<?xml version="1.0" encoding="UTF-8"?>
<svg id="Layer_1" xmlns="http://www.w3.org/2000/svg" version="1.1" viewBox="0 0 756 756">
  <!-- Generator: Adobe Illustrator 29.3.1, SVG Export Plug-In . SVG Version: 2.1.0 Build 151)  -->
  <defs>
    <style>
      .st0 {
        fill: #00b4d8;
      }
    </style>
  </defs>
  <path class="st0" d="M523.49,189.42c43.89-40.94,79.13-46.61,79.13-46.61-82.63-36.69-161.27-11.66-181.13-4.17,29.95,9.93,57.99,22.75,82.56,37.84,6.78,4.16,13.27,8.47,19.44,12.93Z"/>
  <path class="st0" d="M755.8,370.7c-61.63-75.18-156-106.57-180.71-113.76h0C501.42,136.88,214.27,51.79-1.02,216.66c0,0,56.14,86.51,173.55,105.96,0,0,76.39-68,181.53-43.86,0,0-102.24-78.56-236.73-14.41,0,0-24.14-6.89-52.72-35.84,0,0,128.74-59.8,270.27-21.94,0,0,.05.01.16.04,6.93,1.86,13.89,3.94,20.85,6.29,23.47,8.88,47.2,22.97,65.4,63.48.23-24.37-7.49-51.01-13.32-66.12,0,0,28.08,27.3,34.78,63.89,0,0,14.59-32.91-6.49-66.44,0,0,30.96,20.86,34.71,73.44,0,0,9.76-11.34,6.3-32.3,0,0,9.14,9.37,8.6,26.01-.17,4.01-1.11,11.76-5.56,18.47,3.39-1.57,5.45-3.62,6.65-5.82,100.42,81.72,90.95,198.83,39.05,299.06,0,0,120.97-65.16,90.19-237.42,57.62,2.32,139.61,21.56,139.61,21.56Z"/>
  <path class="st0" d="M423.84,393.64c-155.56-13.23-198.38-64.06-198.38-64.06,0,0,.57,22.47,39.37,45.94,16.45,26.28,51.19,69.31,109.81,86.56,0,0-6.64-21.34-11.36-51.81,6.61,1.37,13.52,2.69,20.78,3.94,188.28,32.51,56.55,132.25,55.39,133.13-76.78,52.21-162.58,17.42-162.58,17.42,0,0,25.97-99.62-85.83-162.72,33.24,42.93,36.13,100.18,8.54,140.71-30.63,44.98-84.65,48.54-91.28,48.88,4.06,5.71,24.26,33.4,62.35,39.81,21.36,3.6,47.85-.2,78.9-20.25.89-.57,10.39,4.43,11.49,4.85,10.27,3.9,20.83,7.03,31.53,9.49,32.02,7.35,65.65,8.49,97.92,2.14,32.65-6.42,63.5-22.02,87.83-44.75,10.88-10.17,19.89-22.24,27.45-35.05,8.35-14.16,15.01-29.48,18.85-45.49,3.68-15.35,4.76-31.69.67-47.07-4.27-16.08-14.31-29.64-27.85-39.18-19.36-13.64-43.54-19.23-66.72-21.82-2.28-.25-4.57-.48-6.86-.67Z"/>
</svg>